<svg width="60" height="58" viewBox="0 0 60 58" fill="none" xmlns="http://www.w3.org/2000/svg">
<path d="M39.7387 46.0137C40.1177 46.6653 40.1191 47.4698 39.7415 48.1213L34.8484 56.5759C34.0364 57.9782 32.0093 57.9782 31.1973 56.5759L0.285449 3.15436C-0.525108 1.75352 0.488443 0 2.11098 0H11.8362C12.59 0 13.2856 0.402262 13.6618 1.0524C22.8803 16.9814 30.5089 30.1314 39.7387 46.0137ZM37.0288 8.26904C36.6526 7.61891 35.9556 7.21523 35.2019 7.21523H25.4766C23.8541 7.21523 22.8391 8.96733 23.6511 10.3696L41.2988 40.8707C42.1107 42.273 44.1378 42.273 44.9498 40.8707L49.8444 32.4147C50.222 31.7631 50.2206 30.9572 49.8416 30.3057C41.1668 15.3851 45.6922 23.2434 37.0288 8.26762V8.26904ZM58.6739 14.4489H48.9501C47.3276 14.4489 46.3126 16.2024 47.1246 17.6046L50.7997 23.9544C51.6117 25.3567 53.6402 25.3567 54.4508 23.9544L59.3425 15.4984C59.7201 14.8469 59.4263 14.4503 58.6739 14.4503V14.4489Z" fill="url(#paint0_linear_711_2)"/>
<defs>
<linearGradient id="paint0_linear_711_2" x1="0.000121897" y1="28.8142" x2="59.5072" y2="28.8142" gradientUnits="userSpaceOnUse">
<stop stop-color="#5D626B"/>
<stop offset="0.35" stop-color="#1294F2"/>
<stop offset="0.7" stop-color="#4CB2FC"/>
<stop offset="1" stop-color="#86CCFF"/>
</linearGradient>
</defs>
</svg>
