<svg width="429" height="463" viewBox="0 0 429 463" fill="none" xmlns="http://www.w3.org/2000/svg">
<path d="M318.03 369.068C321.063 374.294 321.075 380.746 318.053 385.972L278.893 453.785C272.394 465.032 256.171 465.032 249.673 453.785L2.28252 25.3005C-4.20443 14.0647 3.9071 0 16.8924 0H94.7244C100.757 0 106.324 3.22647 109.334 8.44109C183.111 136.205 244.163 241.679 318.03 369.068ZM296.343 66.3245C293.332 61.1098 287.754 57.872 281.721 57.872H203.889C190.904 57.872 182.781 71.9253 189.279 83.1726L330.516 327.816C337.014 339.064 353.237 339.064 359.735 327.816L398.907 259.992C401.929 254.766 401.917 248.302 398.884 243.076C329.459 123.401 365.677 186.431 296.343 66.3131V66.3245ZM469.57 115.892H391.75C378.764 115.892 370.641 129.956 377.14 141.204L406.553 192.134C413.051 203.381 429.285 203.381 435.772 192.134L474.921 124.31C477.943 119.084 475.591 115.903 469.57 115.903V115.892Z" fill="url(#paint0_linear_704_3641)" fill-opacity="0.1"/>
<defs>
<linearGradient id="paint0_linear_704_3641" x1="-0.000978322" y1="231.113" x2="476.239" y2="231.113" gradientUnits="userSpaceOnUse">
<stop stop-color="white"/>
<stop offset="0.35" stop-color="white"/>
<stop offset="0.7" stop-color="white"/>
<stop offset="1" stop-color="white"/>
</linearGradient>
</defs>
</svg>
